<?xml version="1.0" encoding="UTF-8" standalone="no"?>
<!-- Created with Inkscape (http://www.inkscape.org/) -->

<svg
   version="1.1"
   id="svg3993"
   xml:space="preserve"
   width="682.66669"
   height="682.66669"
   viewBox="0 0 682.66669 682.66669"
   xmlns="http://www.w3.org/2000/svg"
   xmlns:svg="http://www.w3.org/2000/svg"><defs
     id="defs3997"><clipPath
       clipPathUnits="userSpaceOnUse"
       id="clipPath4023"><path
         d="M 0,512 H 512 V 0 H 0 Z"
         id="path4021" /></clipPath></defs><g
     id="g3999"
     transform="matrix(1.3333333,0,0,-1.3333333,0,682.66667)"><g
       id="g4001"
       transform="translate(100.435,443.8903)"><path
         d="M 0,0 -30.305,60.61 -60.61,0 Z"
         style="fill:#97e4f9;fill-opacity:1;fill-rule:nonzero;stroke:none"
         id="path4003" /></g><g
       id="g4005"
       transform="translate(70.1301,504.5)"><path
         d="m 0,0 -6.5,-13 23.805,-47.61 h 13 z"
         style="fill:#0acefa;fill-opacity:1;fill-rule:nonzero;stroke:none"
         id="path4007" /></g><g
       id="g4009"
       transform="translate(443.8903,225.6951)"><path
         d="M 0,0 60.61,30.305 0,60.61 Z"
         style="fill:#fc8086;fill-opacity:1;fill-rule:nonzero;stroke:none"
         id="path4011" /></g><g
       id="g4013"
       transform="translate(443.8903,242.0021)"><path
         d="M 0,0 V -16.307 L 60.61,13.998 44.303,22.151 Z"
         style="fill:#fa4954;fill-opacity:1;fill-rule:nonzero;stroke:none"
         id="path4015" /></g><g
       id="g4017"><g
         id="g4019"
         clip-path="url(#clipPath4023)"><g
           id="g4025"
           transform="translate(70.1301,443.8903)"><path
             d="M 0,0 V -436.39"
             style="fill:none;stroke:#000000;stroke-width:15;stroke-linecap:round;stroke-linejoin:round;stroke-miterlimit:10;stroke-dasharray:none;stroke-opacity:1"
             id="path4027" /></g><g
           id="g4029"
           transform="translate(77.4728,489.8146)"><path
             d="m 0,0 -7.343,14.685 -30.305,-60.609 h 60.61 l -7.198,14.397"
             style="fill:none;stroke:#000000;stroke-width:15;stroke-linecap:round;stroke-linejoin:round;stroke-miterlimit:10;stroke-dasharray:none;stroke-opacity:1"
             id="path4031" /></g><g
           id="g4033"
           transform="translate(443.8903,256)"><path
             d="M 0,0 H -436.39"
             style="fill:none;stroke:#000000;stroke-width:15;stroke-linecap:round;stroke-linejoin:round;stroke-miterlimit:10;stroke-dasharray:none;stroke-opacity:1"
             id="path4035" /></g><g
           id="g4037"
           transform="translate(487.475,247.4875)"><path
             d="m 0,0 17.025,8.512 -60.61,30.305 v -60.609 l 11.935,5.967"
             style="fill:none;stroke:#000000;stroke-width:15;stroke-linecap:round;stroke-linejoin:round;stroke-miterlimit:10;stroke-dasharray:none;stroke-opacity:1"
             id="path4039" /></g><g
           id="g4041"
           transform="translate(455.002,59.0183)"><path
             d="M 0,0 C -196.938,0 -356.587,159.65 -356.587,356.587"
             style="fill:none;stroke:#000000;stroke-width:15;stroke-linecap:round;stroke-linejoin:round;stroke-miterlimit:10;stroke-dasharray:none;stroke-opacity:1"
             id="path4043" /></g><g
           id="g4045"
           transform="translate(455.002,452.9817)"><path
             d="M 0,0 C -196.938,0 -356.587,-159.65 -356.587,-356.587"
             style="fill:none;stroke:#000000;stroke-width:15;stroke-linecap:round;stroke-linejoin:round;stroke-miterlimit:10;stroke-dasharray:none;stroke-opacity:1"
             id="path4047" /></g><g
           id="g4049"
           transform="translate(504.5,345.9045)"><path
             d="M 0,0 -30.305,-43.293"
             style="fill:none;stroke:#000000;stroke-width:15;stroke-linecap:round;stroke-linejoin:round;stroke-miterlimit:10;stroke-dasharray:none;stroke-opacity:1"
             id="path4051" /></g><g
           id="g4053"
           transform="translate(474.1951,345.9045)"><path
             d="M 0,0 30.305,-43.293"
             style="fill:none;stroke:#000000;stroke-width:15;stroke-linecap:round;stroke-linejoin:round;stroke-miterlimit:10;stroke-dasharray:none;stroke-opacity:1"
             id="path4055" /></g><g
           id="g4057"
           transform="translate(37.8049,415.6057)"><path
             d="M 0,0 -30.305,-43.293"
             style="fill:none;stroke:#000000;stroke-width:15;stroke-linecap:round;stroke-linejoin:round;stroke-miterlimit:10;stroke-dasharray:none;stroke-opacity:1"
             id="path4059" /></g><g
           id="g4061"
           transform="translate(7.5,415.6057)"><path
             d="M 0,0 15.152,-21.646"
             style="fill:none;stroke:#000000;stroke-width:15;stroke-linecap:round;stroke-linejoin:round;stroke-miterlimit:10;stroke-dasharray:none;stroke-opacity:1"
             id="path4063" /></g><g
           id="g4065"
           transform="translate(354.9959,150.9431)"><path
             d="M 0,0 H 10.102"
             style="fill:none;stroke:#000000;stroke-width:15;stroke-linecap:round;stroke-linejoin:round;stroke-miterlimit:10;stroke-dasharray:none;stroke-opacity:1"
             id="path4067" /></g><g
           id="g4069"
           transform="translate(354.9959,177.2073)"><path
             d="M 0,0 H 10.102"
             style="fill:none;stroke:#000000;stroke-width:15;stroke-linecap:round;stroke-linejoin:round;stroke-miterlimit:10;stroke-dasharray:none;stroke-opacity:1"
             id="path4071" /></g><g
           id="g4073"
           transform="translate(391.3618,141.8516)"><path
             d="M 0,0 V 40.407"
             style="fill:none;stroke:#000000;stroke-width:15;stroke-linecap:round;stroke-linejoin:round;stroke-miterlimit:10;stroke-dasharray:none;stroke-opacity:1"
             id="path4075" /></g><g
           id="g4077"
           transform="translate(447.4212,160.9956)"><path
             d="m 0,0 c 2.924,-11.446 -7.188,-21.558 -18.634,-18.634 -5.19,1.325 -9.326,5.461 -10.651,10.651 -2.924,11.446 7.187,21.558 18.634,18.634 C -5.462,9.326 -1.326,5.19 0,0 Z"
             style="fill:none;stroke:#000000;stroke-width:15;stroke-linecap:round;stroke-linejoin:round;stroke-miterlimit:10;stroke-dasharray:none;stroke-opacity:1"
             id="path4079" /></g><g
           id="g4081"
           transform="translate(503.9903,160.9956)"><path
             d="m 0,0 c 2.924,-11.446 -7.188,-21.558 -18.634,-18.634 -5.19,1.325 -9.326,5.461 -10.652,10.651 -2.923,11.446 7.188,21.558 18.635,18.634 C -5.462,9.326 -1.326,5.19 0,0 Z"
             style="fill:none;stroke:#000000;stroke-width:15;stroke-linecap:round;stroke-linejoin:round;stroke-miterlimit:10;stroke-dasharray:none;stroke-opacity:1"
             id="path4083" /></g><g
           id="g4085"
           transform="translate(489.3476,111.5468)"><path
             d="M 0,0 C 8.368,0 15.152,6.784 15.152,15.152 V 45.457"
             style="fill:none;stroke:#000000;stroke-width:15;stroke-linecap:round;stroke-linejoin:round;stroke-miterlimit:10;stroke-dasharray:none;stroke-opacity:1"
             id="path4087" /></g><g
           id="g4089"
           transform="translate(332.7724,182.2581)"><path
             d="M 0,0 -30.305,-40.407"
             style="fill:none;stroke:#000000;stroke-width:15;stroke-linecap:round;stroke-linejoin:round;stroke-miterlimit:10;stroke-dasharray:none;stroke-opacity:1"
             id="path4091" /></g><g
           id="g4093"
           transform="translate(302.4675,182.2581)"><path
             d="M 0,0 15.152,-20.203"
             style="fill:none;stroke:#000000;stroke-width:15;stroke-linecap:round;stroke-linejoin:round;stroke-miterlimit:10;stroke-dasharray:none;stroke-opacity:1"
             id="path4095" /></g></g></g></g></svg>
