<svg id="Capa_1" enable-background="new 0 0 512 512" height="512" viewBox="0 0 512 512" width="512" xmlns="http://www.w3.org/2000/svg"><g><path d="m486.493 144.485-26.721-25.603-2.466-3.256c-51.939 15.516-130.537 38.958-132.831 39.416-3.434.687-71.497-18.14-71.497-18.14l-82.344-34.39h-8.197c-27.539 38.545-45.022 84.957-48.54 135.29l9.349-1.032h92.03l129.803 30.224 155.214-28.906v-.116l10.497-6.892c-2.975-30.786-11.395-59.977-24.297-86.595z" fill="#31a7fb"/><path d="m168.011 102.512h-89.749l-44.985 44.253-13.814 11.191c-10.11 24.364-16.577 50.619-18.694 78.097l9.167 10.118h28.148l82.912-9.153c2.896-49.919 19.866-96.059 47.015-134.506z" fill="#0094fd"/><path d="m425.226 73.278v-9.349c-34.522-30.44-77.314-51.71-124.571-60.029-49.769 14.538-93.383 43.787-125.992 82.804l71.518 26.41h92.716l93.953-29.771z" fill="#b5dbfd"/><path d="m302.523 4.228c-15.087-2.771-30.634-4.228-46.523-4.228-49.76 0-96.193 14.212-135.492 38.776v22.176l-4.252 4.183 62.587 23.112c31.751-38.985 74.571-68.592 123.68-84.019z" fill="#8dcafc"/><path d="m442.602 286.135-81.041 22.854-37.773-12.045-95.464-40.944-56.316-2.526-53.569 9.628-5.072 1.835c1.413 46.42 14.681 89.808 36.843 127.158l2.568 1.263 61.124 12.444 85.162-9.697 64.558-17.472 89.02 29.604 11.974-3.831c25.005-35.086 41.378-76.748 46.024-121.888l-6.934-7.89z" fill="#b5dbfd"/><path d="m120.762 262.684-2.323.418-68.679 24.836-42.091-1.332-4.896 7.118c2.617 17.72 7.047 34.848 13.1 51.189l3.966 2.008 8.63 4.37 3.922 5.06 35.225-4.888 85.162 41.894 10.768 2.192c-25.387-38.377-40.86-83.877-42.784-132.865z" fill="#8dcafc"/><path d="m259.113 433.191-72.683-5.219s-3.403.696-9.064 1.856c31.668 36.691 73.229 64.366 120.464 78.76 36.091-5.937 69.639-19.419 98.972-38.775l1.626-4.961-21.071-13.805z" fill="#31a7fb"/><path d="m189.08 428.163-2.649-.19s-55.692 11.394-91.693 18.844l-1.023 7.173c44.172 36.247 100.685 58.01 162.285 58.01 15.955 0 31.566-1.467 46.712-4.262-43.41-18.262-82.073-45.57-113.632-79.575z" fill="#0094fd"/><path d="m425.226 63.928c-41.839 6.623-76.046 31.14-109.453 36.115-45.346 6.754-49.056 7.559-122.975-32.936-15.822 15.437-29.712 32.891-41.275 51.956 22.038-4.59 45.657-.967 77.582 19.863 79.704 52.006 80.626 51.537 123.837 43.915 38.833-6.85 78.875-48.668 133.551-38.357-14.932-30.805-35.863-58.156-61.267-80.556z" fill="#8dcafc"/><path d="m196.197 68.966c-5.838-3.191-12.124-6.647-18.929-10.397-21.817-12.021-40.163-17.968-56.76-19.793-44.931 28.085-80.519 69.714-101.046 119.18 19.452 1.828 42.937.504 65.02-9.956 27.54-13.046 49.172-26.843 73.406-30.021 10.795-17.854 23.677-34.303 38.309-49.013z" fill="#31a7fb"/><path d="m259.085 228.663c-70.921-19.537-105.197-7.026-161.753 4.285-34.72 6.944-72.535 5.362-96.563 3.105-.508 6.582-.769 13.234-.769 19.947 0 12.818.954 25.412 2.773 37.725 24.07 3.968 59.115 5.837 91.474-7.107 56.555-22.622 90.831-47.644 161.753-8.569 89.144 49.115 90.176 48.672 138.505 41.474 35.168-5.238 71.223-32.128 116.134-37.006.897-8.716 1.361-17.562 1.361-26.517 0-8.409-.418-16.719-1.21-24.92-43.551 2.847-78.803 15.759-113.2 18.321-48.329 3.598-49.361 3.82-138.505-20.738z" fill="#8dcafc"/><path d="m120.537 252.304c0-8.251.402-16.406 1.154-24.461-7.747 1.652-15.795 3.391-24.359 5.104-34.72 6.944-72.535 5.362-96.563 3.105-.507 6.583-.769 13.235-.769 19.948v.001c0 12.818.954 25.412 2.773 37.724 24.07 3.968 59.116 5.837 91.474-7.106 9.652-3.861 18.654-7.791 27.302-11.461-.656-7.533-1.012-15.151-1.012-22.854z" fill="#31a7fb"/><path d="m298.875 380.192c-60.094 24.896-110.87 17.535-158.912-7.115 11.843 24.295 27.269 46.471 45.591 65.809 21.012-.551 44.116 2.029 73.531 10.132 88.652 24.422 90.169 24.337 137.717 20.796 26.436-17.444 49.455-39.647 67.814-65.407-45.585-40.196-107.669-48.274-165.741-24.215z" fill="#8dcafc"/><path d="m153.837 379.666c-14.27-6.223-28.252-14.054-42.109-23.124-32.362-21.182-69.768-18.121-95.854-11.628 15.922 42.983 43.05 80.524 77.842 109.075 1.208-.22 2.415-.447 3.617-.687 38.201-7.64 66.249-15.813 102.279-14.302-17.961-17.408-33.415-37.382-45.775-59.334z" fill="#31a7fb"/><ellipse cx="201.483" cy="325.572" fill="#8dcafc" rx="31.115" ry="51.884" transform="matrix(.245 -.97 .97 .245 -163.521 441.178)"/></g></svg>