<svg id="Classroom_Objects" height="512" viewBox="0 0 64 64" width="512" xmlns="http://www.w3.org/2000/svg"><path d="m52.142 3.373 8.485 8.485c.781.781.781 2.047 0 2.828l-39.112 39.113-11.314-11.314 39.113-39.112c.781-.781 2.047-.781 2.828 0z" fill="#3780ea"/><path d="m8.787 50.971 4.242 4.242-5.656 5.657-5.657-2.828z" fill="#3780ea"/><path d="m7.569 52.189-3.025 3.025 5.657 2.828 1.61-1.61c.666.176 1.403.011 1.925-.511l3.536-3.536-5.657-5.657-3.536 3.536c-.522.522-.687 1.259-.511 1.925z" fill="#365e7d"/><path d="m8.09 47.41h12v5h-12z" fill="#57565c" transform="matrix(-.707 -.707 .707 -.707 -11.238 95.165)"/><path d="m9.979 43.021h16v6h-16z" fill="#e9e9ea" transform="matrix(-.707 -.707 .707 -.707 -1.849 91.276)"/><path d="m41.979 11.021h16v6h-16z" fill="#e9e9ea" transform="matrix(-.707 -.707 .707 -.707 75.406 59.276)"/><path d="m61.33 11.15-8.48-8.48c-1.13-1.14-3.11-1.14-4.24 0l-39.12 39.11c-.39.39-.39 1.02 0 1.41l.71.71-2.83 2.83c-.39.39-.39 1.03 0 1.42l.71.7-.71.71c-.61.62-.92 1.44-.87 2.28l-2.67 2.66c-.01.02-.02.03-.03.05l-2.79 2.78c-.22.23-.33.55-.28.87s.25.59.54.73l5.65 2.83c.14.08.3.11.45.11.26 0 .52-.1.71-.29l4.08-4.08c.84.05 1.66-.26 2.29-.87l.7-.71.7.71c.2.19.45.29.71.29s.51-.1.71-.29l2.83-2.83.71.71c.19.19.45.29.7.29.26 0 .52-.1.71-.29l39.11-39.12c.57-.56.88-1.32.88-2.12s-.31-1.55-.88-2.12zm-54.16 48.5-3.76-1.88 1.33-1.34 3.77 1.88zm5.87-4.44c-.26.25-.63.35-.97.25-.35-.09-.71.01-.97.26l-1.1 1.1-3.77-1.88 2.05-2.04c.19-.2.29-.45.29-.71 0-.09-.01-.17-.03-.26-.1-.35 0-.71.25-.96l.7-.71 4.25 4.25zm3.52-.7-.7-.71-5.66-5.66-.71-.7 2.13-2.12 7.06 7.06zm4.95-2.13-.69-.69q-.01-.01-.01-.02l-8.48-8.48q-.01 0-.02-.01l-.69-.69 2.82-2.83 9.9 9.9zm4.25-4.24-9.9-9.9 26.34-26.34 9.9 9.9zm27.75-27.76-9.89-9.89 2.82-2.83 9.9 9.9zm6.41-6.4-2.16 2.16-9.9-9.9 2.16-2.16c.38-.38 1.04-.38 1.41 0h.01l8.48 8.49c.19.18.29.43.29.7s-.1.52-.29.71z"/></svg>